<svg width="20" height="20" viewBox="0 0 20 20" fill="none" xmlns="http://www.w3.org/2000/svg">
<path d="M17.8501 4.375H14.8144L14.0912 2.34821C14.0412 2.20953 13.9496 2.08965 13.829 2.00495C13.7083 1.92025 13.5645 1.87487 13.4171 1.875H6.56885C6.26751 1.875 5.99742 2.06473 5.89697 2.34821L5.17153 4.375H2.13581C1.1492 4.375 0.350098 5.17411 0.350098 6.16071V16.3393C0.350098 17.3259 1.1492 18.125 2.13581 18.125H17.8501C18.8367 18.125 19.6358 17.3259 19.6358 16.3393V6.16071C19.6358 5.17411 18.8367 4.375 17.8501 4.375ZM18.0287 16.3393C18.0287 16.4375 17.9483 16.5179 17.8501 16.5179H2.13581C2.0376 16.5179 1.95724 16.4375 1.95724 16.3393V6.16071C1.95724 6.0625 2.0376 5.98214 2.13581 5.98214H6.30322L6.68492 4.91518L7.19608 3.48214H12.7876L13.2988 4.91518L13.6805 5.98214H17.8501C17.9483 5.98214 18.0287 6.0625 18.0287 6.16071V16.3393ZM9.99296 7.41071C8.01974 7.41071 6.42153 9.00893 6.42153 10.9821C6.42153 12.9554 8.01974 14.5536 9.99296 14.5536C11.9662 14.5536 13.5644 12.9554 13.5644 10.9821C13.5644 9.00893 11.9662 7.41071 9.99296 7.41071ZM9.99296 13.125C8.80992 13.125 7.8501 12.1652 7.8501 10.9821C7.8501 9.79911 8.80992 8.83929 9.99296 8.83929C11.176 8.83929 12.1358 9.79911 12.1358 10.9821C12.1358 12.1652 11.176 13.125 9.99296 13.125Z" fill="#654DD7"/>
</svg>
